<svg width="120" height="43" viewBox="0 0 120 43" fill="none" xmlns="http://www.w3.org/2000/svg">
<path d="M48.1749 14.5763C48.1749 6.52602 41.7396 0 33.8012 0H20.1462C12.2078 0 5.77248 6.52602 5.77248 14.5763V28.4237C5.77248 36.474 12.2078 43 20.1462 43H33.8012C41.7396 43 48.1749 36.474 48.1749 28.4237V14.5763Z" fill="#3918D9"/>
<path d="M16.4665 37.8983L9.75113 25.5376H7.8653V37.8983H0V5.15417H13.2008C15.7459 5.15417 17.9077 5.60506 19.6862 6.50685C21.4954 7.40863 22.8446 8.65247 23.7339 10.2384C24.6231 11.7932 25.0678 13.5346 25.0678 15.4625C25.0678 17.6392 24.4545 19.5827 23.2279 21.293C22.032 23.0033 20.2535 24.216 17.8924 24.9313L25.3437 37.8983H16.4665ZM7.8653 19.8937H12.7409C14.1821 19.8937 15.2553 19.5361 15.9606 18.8209C16.6965 18.1057 17.0645 17.0951 17.0645 15.789C17.0645 14.5452 16.6965 13.5656 15.9606 12.8504C15.2553 12.1352 14.1821 11.7776 12.7409 11.7776H7.8653V19.8937Z" fill="white"/>
<path d="M56 22.2492C56 25.4832 55.3101 28.3596 53.9302 30.8784C52.5503 33.4282 50.6338 35.4029 48.1807 36.8022C45.6969 38.2326 42.8912 38.9478 39.7635 38.9478C35.9305 38.9478 32.6494 37.9216 29.9203 35.8693C27.1912 33.817 25.3667 31.0183 24.4468 27.4734H33.094C33.738 28.8416 34.6579 29.8833 35.8538 30.5985C37.019 31.3137 38.3529 31.6713 39.8554 31.6713C42.2779 31.6713 44.2404 30.8162 45.7429 29.1059C47.2454 27.3956 47.9967 25.1101 47.9967 22.2492C47.9967 19.3884 47.2454 17.1028 45.7429 15.3925C44.2404 13.6823 42.2779 12.8271 39.8554 12.8271C38.3529 12.8271 37.019 13.1847 35.8538 13.8999C34.6579 14.6151 33.738 15.6569 33.094 17.0251H24.4468C25.3667 13.4801 27.1912 10.6815 29.9203 8.62915C32.6494 6.60791 35.9305 5.59729 39.7635 5.59729C42.8912 5.59729 45.6969 6.29695 48.1807 7.69627C50.6338 9.12669 52.5503 11.1013 53.9302 13.6201C55.3101 16.1388 56 19.0152 56 22.2492Z" fill="white"/>
<path d="M68.33 18L66.035 13.995H65.45V18H62.885V7.395H67.265C68.105 7.395 68.815 7.54 69.395 7.83C69.975 8.12 70.41 8.52 70.7 9.03C70.99 9.53 71.135 10.105 71.135 10.755C71.135 11.525 70.92 12.18 70.49 12.72C70.07 13.26 69.455 13.63 68.645 13.83L71.165 18H68.33ZM65.45 12.24H67.04C67.55 12.24 67.925 12.13 68.165 11.91C68.405 11.68 68.525 11.345 68.525 10.905C68.525 10.485 68.4 10.155 68.15 9.915C67.91 9.675 67.54 9.555 67.04 9.555H65.45V12.24Z" fill="#3918D9"/>
<path d="M74.9861 7.395V18H72.4211V7.395H74.9861Z" fill="#3918D9"/>
<path d="M81.7221 7.29C83.0521 7.29 84.1471 7.615 85.0071 8.265C85.8671 8.915 86.4021 9.795 86.6121 10.905H83.8971C83.7171 10.525 83.4421 10.225 83.0721 10.005C82.7021 9.775 82.2571 9.66 81.7371 9.66C80.9271 9.66 80.2771 9.935 79.7871 10.485C79.2971 11.025 79.0521 11.76 79.0521 12.69C79.0521 13.7 79.3071 14.475 79.8171 15.015C80.3371 15.555 81.0721 15.825 82.0221 15.825C82.6321 15.825 83.1671 15.66 83.6271 15.33C84.0871 14.99 84.4121 14.51 84.6021 13.89H81.3621V12.045H86.7471V14.58C86.5471 15.2 86.2271 15.775 85.7871 16.305C85.3471 16.835 84.7821 17.265 84.0921 17.595C83.4121 17.925 82.6321 18.09 81.7521 18.09C80.6821 18.09 79.7471 17.865 78.9471 17.415C78.1471 16.955 77.5271 16.315 77.0871 15.495C76.6571 14.675 76.4421 13.74 76.4421 12.69C76.4421 11.64 76.6571 10.705 77.0871 9.885C77.5271 9.065 78.1421 8.43 78.9321 7.98C79.7321 7.52 80.6621 7.29 81.7221 7.29Z" fill="#3918D9"/>
<path d="M97.3479 7.395V18H94.7679V13.575H90.7478V18H88.1829V7.395H90.7478V11.505H94.7679V7.395H97.3479Z" fill="#3918D9"/>
<path d="M106.731 7.395V9.435H103.851V18H101.271V9.435H98.4206V7.395H106.731Z" fill="#3918D9"/>
<path d="M67.73 19.29C69.08 19.29 70.195 19.645 71.075 20.355C71.965 21.065 72.54 22.025 72.8 23.235H70.085C69.885 22.745 69.575 22.36 69.155 22.08C68.745 21.8 68.255 21.66 67.685 21.66C66.935 21.66 66.33 21.935 65.87 22.485C65.41 23.035 65.18 23.77 65.18 24.69C65.18 25.61 65.41 26.345 65.87 26.895C66.33 27.435 66.935 27.705 67.685 27.705C68.255 27.705 68.745 27.565 69.155 27.285C69.575 27.005 69.885 26.625 70.085 26.145H72.8C72.54 27.345 71.965 28.305 71.075 29.025C70.195 29.735 69.08 30.09 67.73 30.09C66.7 30.09 65.795 29.865 65.015 29.415C64.235 28.955 63.63 28.315 63.2 27.495C62.78 26.675 62.57 25.74 62.57 24.69C62.57 23.64 62.78 22.705 63.2 21.885C63.63 21.065 64.235 20.43 65.015 19.98C65.795 19.52 66.7 19.29 67.73 19.29Z" fill="#3918D9"/>
<path d="M83.4025 19.395V30H80.8225V25.575H76.8025V30H74.2375V19.395H76.8025V23.505H80.8225V19.395H83.4025Z" fill="#3918D9"/>
<path d="M90.2053 19.23C91.2053 19.23 92.1103 19.465 92.9203 19.935C93.7403 20.395 94.3853 21.04 94.8553 21.87C95.3253 22.69 95.5603 23.62 95.5603 24.66C95.5603 25.7 95.3203 26.635 94.8403 27.465C94.3703 28.295 93.7253 28.945 92.9053 29.415C92.0953 29.875 91.1953 30.105 90.2053 30.105C89.2153 30.105 88.3103 29.875 87.4903 29.415C86.6803 28.945 86.0353 28.295 85.5553 27.465C85.0853 26.635 84.8503 25.7 84.8503 24.66C84.8503 23.62 85.0853 22.69 85.5553 21.87C86.0353 21.04 86.6803 20.395 87.4903 19.935C88.3103 19.465 89.2153 19.23 90.2053 19.23ZM90.2053 21.615C89.3653 21.615 88.6953 21.89 88.1953 22.44C87.7053 22.98 87.4603 23.72 87.4603 24.66C87.4603 25.59 87.7053 26.33 88.1953 26.88C88.6953 27.43 89.3653 27.705 90.2053 27.705C91.0353 27.705 91.7003 27.43 92.2003 26.88C92.7003 26.33 92.9503 25.59 92.9503 24.66C92.9503 23.73 92.7003 22.99 92.2003 22.44C91.7103 21.89 91.0453 21.615 90.2053 21.615Z" fill="#3918D9"/>
<path d="M99.5662 19.395V30H97.0012V19.395H99.5662Z" fill="#3918D9"/>
<path d="M106.182 19.29C107.532 19.29 108.647 19.645 109.527 20.355C110.417 21.065 110.992 22.025 111.252 23.235H108.537C108.337 22.745 108.027 22.36 107.607 22.08C107.197 21.8 106.707 21.66 106.137 21.66C105.387 21.66 104.782 21.935 104.322 22.485C103.862 23.035 103.632 23.77 103.632 24.69C103.632 25.61 103.862 26.345 104.322 26.895C104.782 27.435 105.387 27.705 106.137 27.705C106.707 27.705 107.197 27.565 107.607 27.285C108.027 27.005 108.337 26.625 108.537 26.145H111.252C110.992 27.345 110.417 28.305 109.527 29.025C108.647 29.735 107.532 30.09 106.182 30.09C105.152 30.09 104.247 29.865 103.467 29.415C102.687 28.955 102.082 28.315 101.652 27.495C101.232 26.675 101.022 25.74 101.022 24.69C101.022 23.64 101.232 22.705 101.652 21.885C102.082 21.065 102.687 20.43 103.467 19.98C104.247 19.52 105.152 19.29 106.182 19.29Z" fill="#3918D9"/>
<path d="M115.255 21.435V23.655H118.84V25.59H115.255V27.945H119.29V30H112.69V19.395H119.29V21.435H115.255Z" fill="#3918D9"/>
<path d="M64.45 33.44C65.07 33.44 65.5667 33.6033 65.94 33.93C66.32 34.25 66.55 34.6833 66.63 35.23H65.76C65.72 34.9033 65.5833 34.6367 65.35 34.43C65.1233 34.2167 64.8167 34.11 64.43 34.11C64.1033 34.11 63.8467 34.19 63.66 34.35C63.48 34.5033 63.39 34.7133 63.39 34.98C63.39 35.18 63.45 35.3433 63.57 35.47C63.6967 35.59 63.85 35.6833 64.03 35.75C64.2167 35.81 64.47 35.8767 64.79 35.95C65.1967 36.0433 65.5233 36.14 65.77 36.24C66.0233 36.3333 66.2367 36.4867 66.41 36.7C66.59 36.9133 66.68 37.2 66.68 37.56C66.68 38.0067 66.51 38.37 66.17 38.65C65.8367 38.93 65.39 39.07 64.83 39.07C64.1767 39.07 63.6433 38.9133 63.23 38.6C62.8167 38.2867 62.5733 37.85 62.5 37.29H63.38C63.4133 37.6233 63.5567 37.8933 63.81 38.1C64.07 38.3067 64.41 38.41 64.83 38.41C65.1433 38.41 65.3867 38.33 65.56 38.17C65.74 38.01 65.83 37.8 65.83 37.54C65.83 37.3267 65.7667 37.1567 65.64 37.03C65.5133 36.9033 65.3567 36.8067 65.17 36.74C64.9833 36.6733 64.7267 36.6033 64.4 36.53C63.9933 36.4367 63.6667 36.3433 63.42 36.25C63.18 36.1567 62.9733 36.01 62.8 35.81C62.6333 35.6033 62.55 35.3267 62.55 34.98C62.55 34.52 62.72 34.15 63.06 33.87C63.4 33.5833 63.8633 33.44 64.45 33.44Z" fill="#3918D9"/>
<path d="M68.276 33.51L70.056 37.83L71.706 33.51H72.716L69.456 41.6H68.426L69.566 38.91L67.256 33.51H68.276Z" fill="#3918D9"/>
<path d="M75.2703 33.44C75.8903 33.44 76.387 33.6033 76.7603 33.93C77.1403 34.25 77.3703 34.6833 77.4503 35.23H76.5803C76.5403 34.9033 76.4036 34.6367 76.1703 34.43C75.9436 34.2167 75.637 34.11 75.2503 34.11C74.9236 34.11 74.667 34.19 74.4803 34.35C74.3003 34.5033 74.2103 34.7133 74.2103 34.98C74.2103 35.18 74.2703 35.3433 74.3903 35.47C74.517 35.59 74.6703 35.6833 74.8503 35.75C75.037 35.81 75.2903 35.8767 75.6103 35.95C76.017 36.0433 76.3436 36.14 76.5903 36.24C76.8436 36.3333 77.057 36.4867 77.2303 36.7C77.4103 36.9133 77.5003 37.2 77.5003 37.56C77.5003 38.0067 77.3303 38.37 76.9903 38.65C76.657 38.93 76.2103 39.07 75.6503 39.07C74.997 39.07 74.4636 38.9133 74.0503 38.6C73.637 38.2867 73.3936 37.85 73.3203 37.29H74.2003C74.2336 37.6233 74.377 37.8933 74.6303 38.1C74.8903 38.3067 75.2303 38.41 75.6503 38.41C75.9636 38.41 76.207 38.33 76.3803 38.17C76.5603 38.01 76.6503 37.8 76.6503 37.54C76.6503 37.3267 76.587 37.1567 76.4603 37.03C76.3336 36.9033 76.177 36.8067 75.9903 36.74C75.8036 36.6733 75.547 36.6033 75.2203 36.53C74.8136 36.4367 74.487 36.3433 74.2403 36.25C74.0003 36.1567 73.7936 36.01 73.6203 35.81C73.4537 35.6033 73.3703 35.3267 73.3703 34.98C73.3703 34.52 73.5403 34.15 73.8803 33.87C74.2203 33.5833 74.6836 33.44 75.2703 33.44Z" fill="#3918D9"/>
<path d="M81.3363 38.2V39H80.6563C80.0963 39 79.6763 38.8667 79.3963 38.6C79.123 38.3333 78.9863 37.8867 78.9863 37.26V34.3H78.1663V33.51H78.9863V32.14H79.9063V33.51H81.3263V34.3H79.9063V37.28C79.9063 37.6333 79.9697 37.8767 80.0963 38.01C80.2297 38.1367 80.4563 38.2 80.7763 38.2H81.3363Z" fill="#3918D9"/>
<path d="M87.4968 35.95C87.4968 36.1433 87.4835 36.31 87.4568 36.45H83.0668C83.0868 37.0767 83.2635 37.5467 83.5968 37.86C83.9368 38.1733 84.3501 38.33 84.8368 38.33C85.2768 38.33 85.6435 38.22 85.9368 38C86.2368 37.7733 86.4201 37.4733 86.4868 37.1H87.4568C87.3901 37.48 87.2401 37.82 87.0068 38.12C86.7801 38.42 86.4835 38.6533 86.1168 38.82C85.7501 38.9867 85.3368 39.07 84.8768 39.07C84.3501 39.07 83.8835 38.9567 83.4768 38.73C83.0701 38.5033 82.7501 38.18 82.5168 37.76C82.2901 37.3333 82.1768 36.8333 82.1768 36.26C82.1768 35.6867 82.2901 35.1867 82.5168 34.76C82.7501 34.3333 83.0701 34.0067 83.4768 33.78C83.8835 33.5533 84.3501 33.44 84.8768 33.44C85.4101 33.44 85.8735 33.5533 86.2668 33.78C86.6668 34.0067 86.9701 34.31 87.1768 34.69C87.3901 35.07 87.4968 35.49 87.4968 35.95ZM86.5768 36.01C86.5968 35.6033 86.5301 35.2633 86.3768 34.99C86.2235 34.7167 86.0135 34.5133 85.7468 34.38C85.4801 34.2467 85.1901 34.18 84.8768 34.18C84.3768 34.18 83.9568 34.3367 83.6168 34.65C83.2768 34.9567 83.0935 35.41 83.0668 36.01H86.5768Z" fill="#3918D9"/>
<path d="M95.437 33.42C96.077 33.42 96.5904 33.6267 96.977 34.04C97.3704 34.4467 97.567 35.0367 97.567 35.81V39H96.657V35.89C96.657 35.35 96.5237 34.9367 96.257 34.65C95.997 34.3633 95.637 34.22 95.177 34.22C94.697 34.22 94.3104 34.38 94.017 34.7C93.7304 35.0133 93.587 35.4767 93.587 36.09V39H92.677V35.89C92.677 35.35 92.5437 34.9367 92.277 34.65C92.0104 34.3633 91.6504 34.22 91.197 34.22C90.7104 34.22 90.3204 34.38 90.027 34.7C89.7404 35.0133 89.597 35.4767 89.597 36.09V39H88.687V33.51H89.597V34.76C89.7304 34.3267 89.967 33.9967 90.307 33.77C90.6537 33.5367 91.0504 33.42 91.497 33.42C91.9637 33.42 92.367 33.54 92.707 33.78C93.0537 34.0133 93.3004 34.36 93.447 34.82C93.6004 34.3733 93.857 34.03 94.217 33.79C94.577 33.5433 94.9837 33.42 95.437 33.42Z" fill="#3918D9"/>
</svg>
